#!OML:ASF F:\VICON\USERDATA\INSTALL\rory3\rory3.ASF
:FULLY-SPECIFIED
:DEGREES
440
root 0.848543 17.6143 48.2598 -1.77966 3.3049 1.32418
lowerback 10.5143 -1.94842 -3.63337
upperback -0.263545 -2.91948 2.02277
thorax -5.89118 -1.29637 4.62413
lowerneck -16.5927 -3.19284 -2.94216
upperneck 22.8128 -4.18786 1.96465
head 10.1187 -1.96109 0.615911
rclavicle 9.91439e-015 -1.11319e-014
rhumerus -35.8785 -20.9099 -74.7039
rradius 32.3644
rwrist 4.43784
rhand -17.3515 19.7513
rfingers 7.12502
rthumb 8.89617 -10.0411
lclavicle 9.91439e-015 -1.11319e-014
lhumerus -21.8989 -3.00897 79.4969
lradius 32.2696
lwrist 12.4317
lhand -30.4727 15.2726
lfingers 7.12502
lthumb -3.77399 45.219
rfemur -28.0598 3.9289 18.4074
rtibia 18.7719
rfoot -11.6986 -10.6956
rtoes -7.44742
lfemur 13.8746 -1.49214 -25.9654
ltibia 15.1841
lfoot -17.5326 -4.75455
ltoes -1.86809
441
root 0.812381 17.5865 48.4508 -1.99099 2.97681 1.10287
lowerback 10.1734 -1.80466 -3.78849
upperback 0.183452 -2.72695 2.12723
thorax -5.23498 -1.22452 4.76163
lowerneck -17.0565 -3.28919 -2.96382
upperneck 22.5797 -4.34445 2.15314
head 10.1323 -2.00881 0.658106
rclavicle 1.07344e-014 -7.15625e-015
rhumerus -35.2559 -20.8534 -75.141
rradius 31.8268
rwrist 2.7426
rhand -17.572 22.473
rfingers 7.12502
rthumb 8.68335 -7.32843
lclavicle 1.07344e-014 -7.15625e-015
lhumerus -21.0939 -2.94426 79.3981
lradius 32.1891
lwrist 12.218
lhand -30.612 14.9384
lfingers 7.12502
lthumb -3.90843 44.8823
rfemur -28.1687 3.7795 19.153
rtibia 20.2859
rfoot -10.8148 -9.15733
rtoes -5.38275
lfemur 14.5904 -1.4328 -25.5801
ltibia 16.1171
lfoot -17.9392 -4.35876
ltoes -4.62736
442
root 0.778606 17.5507 48.6296 -2.07088 2.64639 1.37852
lowerback 10.9868 -1.61331 -4.2954
upperback -0.28669 -2.56927 2.0918
thorax -6.18814 -1.09211 5.04716
lowerneck -16.891 -3.38424 -3.23058
upperneck 23.0103 -4.45657 2.28602
head 10.2698 -2.06802 0.734578
rclavicle 2.96935e-014 -1.19271e-014
rhumerus -36.0883 -20.8288 -74.7921
rradius 31.4225
rwrist 2.14359
rhand -17.5159 23.851
rfingers 7.12502
rthumb 8.73748 -5.94815
lclavicle 2.96935e-014 -1.19271e-014
lhumerus -21.753 -3.13855 79.4575
lradius 32.3025
lwrist 12.1285
lhand -30.5 15.2188
lfingers 7.12502
lthumb -3.80035 45.1646
rfemur -28.4964 3.97139 19.2284
rtibia 22.0083
rfoot -11.1278 -8.58381
rtoes -5.21643
lfemur 15.0207 -1.41922 -25.7752
ltibia 16.8733
lfoot -17.8886 -3.9275
ltoes -7.46852
443
root 0.768198 17.5345 48.8318 -2.06172 2.83271 1.42451
lowerback 10.4235 -1.67659 -4.28171
upperback -0.0841889 -2.62952 2.07713
thorax -5.64988 -1.14523 4.99714
lowerneck -16.9045 -3.39657 -3.28129
upperneck 22.7855 -4.47158 2.36291
head 10.195 -2.0708 0.768523
rclavicle -1.76421e-015 -7.95139e-016
rhumerus -36.0023 -21.4811 -74.4908
rradius 31.0901
rwrist 2.79639
rhand -17.6633 23.609
rfingers 7.12502
rthumb 8.59532 -6.19601
lclavicle -1.76421e-015 -7.95139e-016
lhumerus -21.5949 -2.70643 79.462
lradius 32.5366
lwrist 11.6705
lhand -30.4229 15.7496
lfingers 7.12502
lthumb -3.72585 45.6967
rfemur -28.6029 3.34236 19.5343
rtibia 23.6775
rfoot -12.1076 -8.17585
rtoes -6.51246
lfemur 15.3976 -1.61343 -25.709
ltibia 17.558
lfoot -17.6298 -3.80435
ltoes -10.7683
444
root 0.755999 17.5332 49.0196 -2.08375 3.12143 1.6112
lowerback 10.3548 -1.74968 -4.37794
upperback -0.076039 -2.7406 1.995
thorax -5.58933 -1.20063 4.97636
lowerneck -16.6764 -3.21942 -2.95367
upperneck 22.7016 -4.235 2.03893
head 10.098 -1.97445 0.636644
rclavicle 1.42628e-014 -1.98785e-014
rhumerus -36.1568 -22.1044 -74.0878
rradius 30.8045
rwrist 3.87728
rhand -18.2521 23.4294
rfingers 7.12502
rthumb 8.02699 -6.39815
lclavicle 1.42628e-014 -1.98785e-014
lhumerus -21.846 -1.90274 79.4172
lradius 32.9897
lwrist 10.8945
lhand -30.4857 15.4695
lfingers 7.12502
lthumb -3.78653 45.4156
rfemur -28.5836 3.0196 19.5124
rtibia 24.9473
rfoot -10.5794 -8.03874
rtoes -7.50908
lfemur 15.6384 -1.93379 -25.8197
ltibia 18.3721
lfoot -17.2152 -4.15142
ltoes -13.5704
445
root 0.731974 17.558 49.2179 -2.17298 3.18075 1.39014
lowerback 10.544 -1.75993 -4.22482
upperback -0.218359 -2.74105 2.05031
thorax -5.85085 -1.19266 4.96308
lowerneck -16.5047 -3.19549 -2.96388
upperneck 22.7523 -4.22507 2.11505
head 10.0855 -1.96338 0.668805
rclavicle 2.15433e-014 -2.38542e-014
rhumerus -36.5822 -22.4592 -73.7201
rradius 30.4544
rwrist 4.63148
rhand -18.0732 23.6529
rfingers 7.12502
rthumb 8.19969 -6.16799
lclavicle 2.15433e-014 -2.38542e-014
lhumerus -22.2982 -1.33654 79.4036
lradius 33.3166
lwrist 10.4403
lhand -30.3492 15.4881
lfingers 7.12502
lthumb -3.65465 45.4365
rfemur -28.4701 3.53563 19.7167
rtibia 25.906
rfoot -9.08881 -8.02823
rtoes -8.2607
lfemur 15.7437 -2.21878 -25.4678
ltibia 19.2832
lfoot -16.7907 -5.17139
ltoes -14.5479
446
root 0.703019 17.5827 49.4245 -2.29133 3.23031 0.694062
lowerback 10.7243 -1.8347 -3.66645
upperback -0.430914 -2.76559 2.25421
thorax -6.19062 -1.20363 4.88371
lowerneck -16.3166 -3.33193 -3.35412
upperneck 22.8905 -4.43409 2.5552
head 10.1266 -2.04353 0.862091
rclavicle -3.3048e-015 2.38542e-015
rhumerus -36.9949 -22.2773 -73.6754
rradius 30.1378
rwrist 3.95556
rhand -18.0714 24.0749
rfingers 7.12502
rthumb 8.20146 -5.74592
lclavicle -3.3048e-015 2.38542e-015
lhumerus -22.8493 -1.05681 79.3947
lradius 33.3863
lwrist 10.396
lhand -29.918 15.2631
lfingers 7.12502
lthumb -3.23828 45.2183
rfemur -28.4056 4.52872 20.2225
rtibia 26.5428
rfoot -7.63141 -8.44531
rtoes -9.45617
lfemur 15.6458 -2.64481 -24.6014
ltibia 20.4131
lfoot -16.1544 -6.11641
ltoes -15.3305
447
root 0.689739 17.5976 49.6324 -2.54246 3.38768 0.174975
lowerback 10.9412 -1.95518 -3.09358
upperback -0.487146 -2.84952 2.38311
thorax -6.38413 -1.25435 4.72229
lowerneck -16.4061 -3.62911 -3.98367
upperneck 22.9453 -4.84965 3.21459
head 10.2133 -2.21104 1.14017
rclavicle -2.43635e-014 1.66979e-014
rhumerus -37.2078 -22.6274 -73.3888
rradius 29.8407
rwrist 4.1842
rhand -17.7926 23.6605
rfingers 7.12502
rthumb 8.47052 -6.14965
lclavicle -2.43635e-014 1.66979e-014
lhumerus -23.2167 -0.848552 79.4269
lradius 33.3773
lwrist 10.4035
lhand -29.6181 15.0668
lfingers 7.12502
lthumb -2.94865 45.0261
rfemur -27.8211 4.30569 20.9327
rtibia 27.0259
rfoot -6.02201 -7.77257
rtoes -10.2562
lfemur 15.6505 -3.10084 -24.024
ltibia 21.8075
lfoot -15.0703 -7.01025
ltoes -14.5136
448
root 0.682126 17.6117 49.8326 -2.7292 3.52239 0.322128
lowerback 10.9838 -2.01195 -3.11213
upperback -0.367744 -2.93087 2.34081
thorax -6.27431 -1.29959 4.69786
lowerneck -16.8414 -3.30761 -3.25274
upperneck 23.5168 -4.32209 2.14115
head 10.4369 -2.02464 0.705053
rclavicle -2.92959e-014 2.46493e-014
rhumerus -37.0694 -23.2527 -73.0197
rradius 29.3401
rwrist 4.87827
rhand -18.01 23.2418
rfingers 7.12502
rthumb 8.26066 -6.57665
lclavicle -2.92959e-014 2.46493e-014
lhumerus -23.2418 -0.560011 79.559
lradius 33.301
lwrist 10.3653
lhand -29.8294 16.1059
lfingers 7.12502
lthumb -3.15269 46.0624
rfemur -27.395 4.02525 20.8556
rtibia 27.4539
rfoot -6.88133 -6.85744
rtoes -19.2273
lfemur 15.4969 -3.36003 -24.1708
ltibia 23.468
lfoot -13.7151 -7.87168
ltoes -13.9862
